M48
; DRILL file {KiCad 6.0.1-79c1e3a40b~116~ubuntu20.04.1} date jue 10 feb 2022 18:00:06
; FORMAT={-:-/ absolute / inch / decimal}
; #@! TF.CreationDate,2022-02-10T18:00:06+01:00
; #@! TF.GenerationSoftware,Kicad,Pcbnew,6.0.1-79c1e3a40b~116~ubuntu20.04.1
; #@! TF.FileFunction,Plated,1,2,PTH
FMAT,2
INCH
; #@! TA.AperFunction,Plated,PTH,ViaDrill
T1C0.0236
; #@! TA.AperFunction,Plated,PTH,ComponentDrill
T2C0.0374
; #@! TA.AperFunction,Plated,PTH,ComponentDrill
T3C0.1260
%
G90
G05
T1
X1.0118Y-2.2028
X1.0118Y-2.3189
X1.0118Y-2.439
X1.0118Y-2.5571
X1.3681Y-2.5551
X1.376Y-2.3209
X2.1594Y-1.0906
X2.2382Y-1.0906
X2.3169Y-1.0906
X2.3957Y-1.0906
X2.4744Y-1.0886
X2.5531Y-1.0945
X2.5762Y-0.9612
X2.6224Y-0.9517
X2.6713Y-0.9449
X2.7106Y-1.0945
X2.7894Y-0.9488
T2
X0.9075Y-2.378
X0.9075Y-2.4764
X0.9075Y-2.5748
X0.9075Y-2.6732
X0.9547Y-1.313
X0.9547Y-1.4114
X0.9547Y-1.5098
T3
X0.7591Y-1.415
X0.7591Y-2.2024
X2.3339Y-2.2024
T3
G00X2.2551Y-1.415
M15
G01X2.4126Y-1.415
M16
G05
T0
M30
