G04 #@! TF.GenerationSoftware,KiCad,Pcbnew,6.0.1-79c1e3a40b~116~ubuntu20.04.1*
G04 #@! TF.CreationDate,2022-02-10T17:59:39+01:00*
G04 #@! TF.ProjectId,SidewinderX1 X axis ConnectorBoard,53696465-7769-46e6-9465-725831205820,rev?*
G04 #@! TF.SameCoordinates,Original*
G04 #@! TF.FileFunction,Legend,Bot*
G04 #@! TF.FilePolarity,Positive*
%FSLAX46Y46*%
G04 Gerber Fmt 4.6, Leading zero omitted, Abs format (unit mm)*
G04 Created by KiCad (PCBNEW 6.0.1-79c1e3a40b~116~ubuntu20.04.1) date 2022-02-10 17:59:39*
%MOMM*%
%LPD*%
G01*
G04 APERTURE LIST*
%ADD10C,0.120000*%
%ADD11C,0.150000*%
%ADD12C,0.300000*%
G04 APERTURE END LIST*
D10*
X43700000Y-59200000D02*
X45200000Y-59200000D01*
X45200000Y-65400000D02*
X43700000Y-65400000D01*
X43700000Y-55850000D02*
X43700000Y-57350000D01*
X45750000Y-64950000D02*
X47250000Y-64950000D01*
X47250000Y-64950000D02*
X47250000Y-63450000D01*
X47250000Y-63450000D02*
X45750000Y-63450000D01*
X45750000Y-63450000D02*
X45750000Y-64950000D01*
X45200000Y-59600000D02*
X43700000Y-59600000D01*
X44600000Y-55850000D02*
X45200000Y-56450000D01*
X43700000Y-65400000D02*
X43700000Y-66900000D01*
X45200000Y-64950000D02*
X45200000Y-64050000D01*
X43100000Y-53425000D02*
X43100000Y-53425000D01*
X43100000Y-53425000D02*
X43100000Y-59575000D01*
X43100000Y-59575000D02*
X43100000Y-59575000D01*
X43100000Y-59575000D02*
X43100000Y-53425000D01*
X44600000Y-61100000D02*
X43700000Y-61100000D01*
X44600000Y-66900000D02*
X43700000Y-66900000D01*
X45200000Y-63000000D02*
X45200000Y-62100000D01*
X43700000Y-63000000D02*
X45200000Y-63000000D01*
X43700000Y-57700000D02*
X44600000Y-57700000D01*
X45200000Y-55350000D02*
X45200000Y-54450000D01*
X44600000Y-61500000D02*
X45200000Y-62100000D01*
X45750000Y-67400000D02*
X46650000Y-67400000D01*
X45750000Y-61500000D02*
X45750000Y-63000000D01*
X43700000Y-53850000D02*
X44600000Y-53850000D01*
X43700000Y-55350000D02*
X45200000Y-55350000D01*
X43700000Y-55850000D02*
X44600000Y-55850000D01*
X43000000Y-59575000D02*
X43200000Y-59575000D01*
X43200000Y-59575000D02*
X43200000Y-53425000D01*
X43200000Y-53425000D02*
X43000000Y-53425000D01*
X43000000Y-53425000D02*
X43000000Y-59575000D01*
X45750000Y-55850000D02*
X45750000Y-57350000D01*
X45750000Y-59600000D02*
X45750000Y-61100000D01*
X46650000Y-55850000D02*
X47250000Y-56450000D01*
X43000000Y-63125000D02*
X43200000Y-63125000D01*
X43200000Y-63125000D02*
X43200000Y-69275000D01*
X43200000Y-69275000D02*
X43000000Y-69275000D01*
X43000000Y-69275000D02*
X43000000Y-63125000D01*
X46650000Y-65400000D02*
X47250000Y-66000000D01*
X42450000Y-59925000D02*
X42550000Y-59925000D01*
X42550000Y-59925000D02*
X42550000Y-62925000D01*
X42550000Y-62925000D02*
X42450000Y-62925000D01*
X42450000Y-62925000D02*
X42450000Y-59925000D01*
X47250000Y-59600000D02*
X45750000Y-59600000D01*
X45750000Y-53850000D02*
X45750000Y-55350000D01*
X43150000Y-63175000D02*
X43100000Y-63175000D01*
X43100000Y-63175000D02*
X43100000Y-69275000D01*
X43100000Y-69275000D02*
X43150000Y-69275000D01*
X43150000Y-69275000D02*
X43150000Y-63175000D01*
X45750000Y-65400000D02*
X46650000Y-65400000D01*
X43700000Y-59600000D02*
X43700000Y-61100000D01*
X44600000Y-57700000D02*
X45200000Y-58300000D01*
X45200000Y-66300000D02*
X44600000Y-66900000D01*
X47250000Y-66900000D02*
X47250000Y-66000000D01*
X43700000Y-61500000D02*
X44600000Y-61500000D01*
X43700000Y-67400000D02*
X43700000Y-68900000D01*
X45750000Y-63000000D02*
X47250000Y-63000000D01*
X45750000Y-57700000D02*
X45750000Y-59200000D01*
X45750000Y-66900000D02*
X47250000Y-66900000D01*
X45200000Y-68900000D02*
X45200000Y-68000000D01*
X43700000Y-57700000D02*
X43700000Y-59200000D01*
X45750000Y-67400000D02*
X45750000Y-68900000D01*
X45750000Y-57350000D02*
X47250000Y-57350000D01*
X43700000Y-64950000D02*
X45200000Y-64950000D01*
X47250000Y-58600000D02*
X47250000Y-57700000D01*
X45200000Y-59200000D02*
X45200000Y-58300000D01*
X45750000Y-68900000D02*
X47250000Y-68900000D01*
X42250000Y-59725000D02*
X42750000Y-59725000D01*
X42750000Y-59725000D02*
X42750000Y-63075000D01*
X42750000Y-63075000D02*
X42250000Y-63075000D01*
X42250000Y-63075000D02*
X42250000Y-59725000D01*
X47250000Y-63000000D02*
X47250000Y-62100000D01*
X43700000Y-67400000D02*
X44600000Y-67400000D01*
X45200000Y-60500000D02*
X44600000Y-61100000D01*
X47250000Y-57350000D02*
X47250000Y-56450000D01*
X47250000Y-60500000D02*
X47250000Y-59600000D01*
X43700000Y-63450000D02*
X44600000Y-63450000D01*
X47250000Y-55350000D02*
X47250000Y-54450000D01*
X45750000Y-65400000D02*
X45750000Y-66900000D01*
X45200000Y-60500000D02*
X45200000Y-59600000D01*
X46650000Y-59200000D02*
X45750000Y-59200000D01*
X44600000Y-53850000D02*
X45200000Y-54450000D01*
X43700000Y-57350000D02*
X45200000Y-57350000D01*
X42350000Y-63025000D02*
X42650000Y-63025000D01*
X42650000Y-63025000D02*
X42650000Y-59825000D01*
X42650000Y-59825000D02*
X42350000Y-59825000D01*
X42350000Y-59825000D02*
X42350000Y-63025000D01*
X45750000Y-55350000D02*
X47250000Y-55350000D01*
X43700000Y-63450000D02*
X43700000Y-64950000D01*
X47250000Y-57700000D02*
X45750000Y-57700000D01*
X46650000Y-61500000D02*
X47250000Y-62100000D01*
X44600000Y-67400000D02*
X45200000Y-68000000D01*
X46650000Y-53850000D02*
X47250000Y-54450000D01*
X47250000Y-68900000D02*
X47250000Y-68000000D01*
X44600000Y-63450000D02*
X45200000Y-64050000D01*
X45750000Y-55850000D02*
X46650000Y-55850000D01*
X43700000Y-61500000D02*
X43700000Y-63000000D01*
X43700000Y-68900000D02*
X45200000Y-68900000D01*
X43300000Y-53450000D02*
X47650000Y-53450000D01*
X47650000Y-53450000D02*
X47650000Y-69300000D01*
X47650000Y-69300000D02*
X43300000Y-69300000D01*
X43300000Y-69300000D02*
X43300000Y-53450000D01*
X45750000Y-61500000D02*
X46650000Y-61500000D01*
X47250000Y-58600000D02*
X46650000Y-59200000D01*
X45200000Y-66300000D02*
X45200000Y-65400000D01*
X45750000Y-53850000D02*
X46650000Y-53850000D01*
X47250000Y-60500000D02*
X46650000Y-61100000D01*
X45200000Y-57350000D02*
X45200000Y-56450000D01*
X43700000Y-53850000D02*
X43700000Y-55350000D01*
X46650000Y-61100000D02*
X45750000Y-61100000D01*
X46650000Y-67400000D02*
X47250000Y-68000000D01*
D11*
X41414404Y-55330857D02*
X41414404Y-54130857D01*
X41414404Y-54702285D02*
X40842976Y-54702285D01*
X40842976Y-55330857D02*
X40842976Y-54130857D01*
X40366785Y-54702285D02*
X40033452Y-54702285D01*
X39890595Y-55330857D02*
X40366785Y-55330857D01*
X40366785Y-54130857D01*
X39890595Y-54130857D01*
X39509642Y-54988000D02*
X39033452Y-54988000D01*
X39604880Y-55330857D02*
X39271547Y-54130857D01*
X38938214Y-55330857D01*
X38747738Y-54130857D02*
X38176309Y-54130857D01*
X38462023Y-55330857D02*
X38462023Y-54130857D01*
X37842976Y-54702285D02*
X37509642Y-54702285D01*
X37366785Y-55330857D02*
X37842976Y-55330857D01*
X37842976Y-54130857D01*
X37366785Y-54130857D01*
X36366785Y-55330857D02*
X36700119Y-54759428D01*
X36938214Y-55330857D02*
X36938214Y-54130857D01*
X36557261Y-54130857D01*
X36462023Y-54188000D01*
X36414404Y-54245142D01*
X36366785Y-54359428D01*
X36366785Y-54530857D01*
X36414404Y-54645142D01*
X36462023Y-54702285D01*
X36557261Y-54759428D01*
X36938214Y-54759428D01*
X35938214Y-54873714D02*
X35176309Y-54873714D01*
X41414404Y-57262857D02*
X41414404Y-56062857D01*
X41414404Y-56634285D02*
X40842976Y-56634285D01*
X40842976Y-57262857D02*
X40842976Y-56062857D01*
X40366785Y-56634285D02*
X40033452Y-56634285D01*
X39890595Y-57262857D02*
X40366785Y-57262857D01*
X40366785Y-56062857D01*
X39890595Y-56062857D01*
X39509642Y-56920000D02*
X39033452Y-56920000D01*
X39604880Y-57262857D02*
X39271547Y-56062857D01*
X38938214Y-57262857D01*
X38747738Y-56062857D02*
X38176309Y-56062857D01*
X38462023Y-57262857D02*
X38462023Y-56062857D01*
X37842976Y-56634285D02*
X37509642Y-56634285D01*
X37366785Y-57262857D02*
X37842976Y-57262857D01*
X37842976Y-56062857D01*
X37366785Y-56062857D01*
X36366785Y-57262857D02*
X36700119Y-56691428D01*
X36938214Y-57262857D02*
X36938214Y-56062857D01*
X36557261Y-56062857D01*
X36462023Y-56120000D01*
X36414404Y-56177142D01*
X36366785Y-56291428D01*
X36366785Y-56462857D01*
X36414404Y-56577142D01*
X36462023Y-56634285D01*
X36557261Y-56691428D01*
X36938214Y-56691428D01*
X35938214Y-56805714D02*
X35176309Y-56805714D01*
X35557261Y-57262857D02*
X35557261Y-56348571D01*
X41081071Y-58566285D02*
X41414404Y-58566285D01*
X41414404Y-59194857D02*
X41414404Y-57994857D01*
X40938214Y-57994857D01*
X40604880Y-58852000D02*
X40128690Y-58852000D01*
X40700119Y-59194857D02*
X40366785Y-57994857D01*
X40033452Y-59194857D01*
X39700119Y-59194857D02*
X39700119Y-57994857D01*
X39128690Y-59194857D01*
X39128690Y-57994857D01*
X38890595Y-59309142D02*
X38128690Y-59309142D01*
X37938214Y-58109142D02*
X37890595Y-58052000D01*
X37795357Y-57994857D01*
X37557261Y-57994857D01*
X37462023Y-58052000D01*
X37414404Y-58109142D01*
X37366785Y-58223428D01*
X37366785Y-58337714D01*
X37414404Y-58509142D01*
X37985833Y-59194857D01*
X37366785Y-59194857D01*
X36938214Y-58737714D02*
X36176309Y-58737714D01*
X36557261Y-59194857D02*
X36557261Y-58280571D01*
X41081071Y-60498285D02*
X41414404Y-60498285D01*
X41414404Y-61126857D02*
X41414404Y-59926857D01*
X40938214Y-59926857D01*
X40604880Y-60784000D02*
X40128690Y-60784000D01*
X40700119Y-61126857D02*
X40366785Y-59926857D01*
X40033452Y-61126857D01*
X39700119Y-61126857D02*
X39700119Y-59926857D01*
X39128690Y-61126857D01*
X39128690Y-59926857D01*
X38890595Y-61241142D02*
X38128690Y-61241142D01*
X37366785Y-61126857D02*
X37938214Y-61126857D01*
X37652500Y-61126857D02*
X37652500Y-59926857D01*
X37747738Y-60098285D01*
X37842976Y-60212571D01*
X37938214Y-60269714D01*
X36938214Y-60669714D02*
X36176309Y-60669714D01*
X36557261Y-61126857D02*
X36557261Y-60212571D01*
X40842976Y-62944571D02*
X40890595Y-63001714D01*
X41033452Y-63058857D01*
X41128690Y-63058857D01*
X41271547Y-63001714D01*
X41366785Y-62887428D01*
X41414404Y-62773142D01*
X41462023Y-62544571D01*
X41462023Y-62373142D01*
X41414404Y-62144571D01*
X41366785Y-62030285D01*
X41271547Y-61916000D01*
X41128690Y-61858857D01*
X41033452Y-61858857D01*
X40890595Y-61916000D01*
X40842976Y-61973142D01*
X40223928Y-61858857D02*
X40033452Y-61858857D01*
X39938214Y-61916000D01*
X39842976Y-62030285D01*
X39795357Y-62258857D01*
X39795357Y-62658857D01*
X39842976Y-62887428D01*
X39938214Y-63001714D01*
X40033452Y-63058857D01*
X40223928Y-63058857D01*
X40319166Y-63001714D01*
X40414404Y-62887428D01*
X40462023Y-62658857D01*
X40462023Y-62258857D01*
X40414404Y-62030285D01*
X40319166Y-61916000D01*
X40223928Y-61858857D01*
X39366785Y-63058857D02*
X39366785Y-61858857D01*
X39033452Y-62716000D01*
X38700119Y-61858857D01*
X38700119Y-63058857D01*
X38223928Y-63058857D02*
X38223928Y-61858857D01*
X37842976Y-61858857D01*
X37747738Y-61916000D01*
X37700119Y-61973142D01*
X37652500Y-62087428D01*
X37652500Y-62258857D01*
X37700119Y-62373142D01*
X37747738Y-62430285D01*
X37842976Y-62487428D01*
X38223928Y-62487428D01*
X36747738Y-63058857D02*
X37223928Y-63058857D01*
X37223928Y-61858857D01*
X36652500Y-63173142D02*
X35890595Y-63173142D01*
X35319166Y-62430285D02*
X35176309Y-62487428D01*
X35128690Y-62544571D01*
X35081071Y-62658857D01*
X35081071Y-62830285D01*
X35128690Y-62944571D01*
X35176309Y-63001714D01*
X35271547Y-63058857D01*
X35652500Y-63058857D01*
X35652500Y-61858857D01*
X35319166Y-61858857D01*
X35223928Y-61916000D01*
X35176309Y-61973142D01*
X35128690Y-62087428D01*
X35128690Y-62201714D01*
X35176309Y-62316000D01*
X35223928Y-62373142D01*
X35319166Y-62430285D01*
X35652500Y-62430285D01*
X34509642Y-63058857D02*
X34604880Y-63001714D01*
X34652500Y-62887428D01*
X34652500Y-61858857D01*
X33700119Y-62258857D02*
X33700119Y-63058857D01*
X34128690Y-62258857D02*
X34128690Y-62887428D01*
X34081071Y-63001714D01*
X33985833Y-63058857D01*
X33842976Y-63058857D01*
X33747738Y-63001714D01*
X33700119Y-62944571D01*
X32842976Y-63001714D02*
X32938214Y-63058857D01*
X33128690Y-63058857D01*
X33223928Y-63001714D01*
X33271547Y-62887428D01*
X33271547Y-62430285D01*
X33223928Y-62316000D01*
X33128690Y-62258857D01*
X32938214Y-62258857D01*
X32842976Y-62316000D01*
X32795357Y-62430285D01*
X32795357Y-62544571D01*
X33271547Y-62658857D01*
X40842976Y-64876571D02*
X40890595Y-64933714D01*
X41033452Y-64990857D01*
X41128690Y-64990857D01*
X41271547Y-64933714D01*
X41366785Y-64819428D01*
X41414404Y-64705142D01*
X41462023Y-64476571D01*
X41462023Y-64305142D01*
X41414404Y-64076571D01*
X41366785Y-63962285D01*
X41271547Y-63848000D01*
X41128690Y-63790857D01*
X41033452Y-63790857D01*
X40890595Y-63848000D01*
X40842976Y-63905142D01*
X40223928Y-63790857D02*
X40033452Y-63790857D01*
X39938214Y-63848000D01*
X39842976Y-63962285D01*
X39795357Y-64190857D01*
X39795357Y-64590857D01*
X39842976Y-64819428D01*
X39938214Y-64933714D01*
X40033452Y-64990857D01*
X40223928Y-64990857D01*
X40319166Y-64933714D01*
X40414404Y-64819428D01*
X40462023Y-64590857D01*
X40462023Y-64190857D01*
X40414404Y-63962285D01*
X40319166Y-63848000D01*
X40223928Y-63790857D01*
X39366785Y-64990857D02*
X39366785Y-63790857D01*
X39033452Y-64648000D01*
X38700119Y-63790857D01*
X38700119Y-64990857D01*
X38223928Y-64990857D02*
X38223928Y-63790857D01*
X37842976Y-63790857D01*
X37747738Y-63848000D01*
X37700119Y-63905142D01*
X37652500Y-64019428D01*
X37652500Y-64190857D01*
X37700119Y-64305142D01*
X37747738Y-64362285D01*
X37842976Y-64419428D01*
X38223928Y-64419428D01*
X36747738Y-64990857D02*
X37223928Y-64990857D01*
X37223928Y-63790857D01*
X36652500Y-65105142D02*
X35890595Y-65105142D01*
X35128690Y-63848000D02*
X35223928Y-63790857D01*
X35366785Y-63790857D01*
X35509642Y-63848000D01*
X35604880Y-63962285D01*
X35652500Y-64076571D01*
X35700119Y-64305142D01*
X35700119Y-64476571D01*
X35652500Y-64705142D01*
X35604880Y-64819428D01*
X35509642Y-64933714D01*
X35366785Y-64990857D01*
X35271547Y-64990857D01*
X35128690Y-64933714D01*
X35081071Y-64876571D01*
X35081071Y-64476571D01*
X35271547Y-64476571D01*
X34652500Y-64990857D02*
X34652500Y-64190857D01*
X34652500Y-64419428D02*
X34604880Y-64305142D01*
X34557261Y-64248000D01*
X34462023Y-64190857D01*
X34366785Y-64190857D01*
X33652500Y-64933714D02*
X33747738Y-64990857D01*
X33938214Y-64990857D01*
X34033452Y-64933714D01*
X34081071Y-64819428D01*
X34081071Y-64362285D01*
X34033452Y-64248000D01*
X33938214Y-64190857D01*
X33747738Y-64190857D01*
X33652500Y-64248000D01*
X33604880Y-64362285D01*
X33604880Y-64476571D01*
X34081071Y-64590857D01*
X32795357Y-64933714D02*
X32890595Y-64990857D01*
X33081071Y-64990857D01*
X33176309Y-64933714D01*
X33223928Y-64819428D01*
X33223928Y-64362285D01*
X33176309Y-64248000D01*
X33081071Y-64190857D01*
X32890595Y-64190857D01*
X32795357Y-64248000D01*
X32747738Y-64362285D01*
X32747738Y-64476571D01*
X33223928Y-64590857D01*
X32319166Y-64190857D02*
X32319166Y-64990857D01*
X32319166Y-64305142D02*
X32271547Y-64248000D01*
X32176309Y-64190857D01*
X32033452Y-64190857D01*
X31938214Y-64248000D01*
X31890595Y-64362285D01*
X31890595Y-64990857D01*
X40842976Y-66808571D02*
X40890595Y-66865714D01*
X41033452Y-66922857D01*
X41128690Y-66922857D01*
X41271547Y-66865714D01*
X41366785Y-66751428D01*
X41414404Y-66637142D01*
X41462023Y-66408571D01*
X41462023Y-66237142D01*
X41414404Y-66008571D01*
X41366785Y-65894285D01*
X41271547Y-65780000D01*
X41128690Y-65722857D01*
X41033452Y-65722857D01*
X40890595Y-65780000D01*
X40842976Y-65837142D01*
X40223928Y-65722857D02*
X40033452Y-65722857D01*
X39938214Y-65780000D01*
X39842976Y-65894285D01*
X39795357Y-66122857D01*
X39795357Y-66522857D01*
X39842976Y-66751428D01*
X39938214Y-66865714D01*
X40033452Y-66922857D01*
X40223928Y-66922857D01*
X40319166Y-66865714D01*
X40414404Y-66751428D01*
X40462023Y-66522857D01*
X40462023Y-66122857D01*
X40414404Y-65894285D01*
X40319166Y-65780000D01*
X40223928Y-65722857D01*
X39366785Y-66922857D02*
X39366785Y-65722857D01*
X39033452Y-66580000D01*
X38700119Y-65722857D01*
X38700119Y-66922857D01*
X38223928Y-66922857D02*
X38223928Y-65722857D01*
X37842976Y-65722857D01*
X37747738Y-65780000D01*
X37700119Y-65837142D01*
X37652500Y-65951428D01*
X37652500Y-66122857D01*
X37700119Y-66237142D01*
X37747738Y-66294285D01*
X37842976Y-66351428D01*
X38223928Y-66351428D01*
X36747738Y-66922857D02*
X37223928Y-66922857D01*
X37223928Y-65722857D01*
X36652500Y-67037142D02*
X35890595Y-67037142D01*
X35081071Y-66922857D02*
X35414404Y-66351428D01*
X35652500Y-66922857D02*
X35652500Y-65722857D01*
X35271547Y-65722857D01*
X35176309Y-65780000D01*
X35128690Y-65837142D01*
X35081071Y-65951428D01*
X35081071Y-66122857D01*
X35128690Y-66237142D01*
X35176309Y-66294285D01*
X35271547Y-66351428D01*
X35652500Y-66351428D01*
X34271547Y-66865714D02*
X34366785Y-66922857D01*
X34557261Y-66922857D01*
X34652500Y-66865714D01*
X34700119Y-66751428D01*
X34700119Y-66294285D01*
X34652500Y-66180000D01*
X34557261Y-66122857D01*
X34366785Y-66122857D01*
X34271547Y-66180000D01*
X34223928Y-66294285D01*
X34223928Y-66408571D01*
X34700119Y-66522857D01*
X33366785Y-66922857D02*
X33366785Y-65722857D01*
X33366785Y-66865714D02*
X33462023Y-66922857D01*
X33652500Y-66922857D01*
X33747738Y-66865714D01*
X33795357Y-66808571D01*
X33842976Y-66694285D01*
X33842976Y-66351428D01*
X33795357Y-66237142D01*
X33747738Y-66180000D01*
X33652500Y-66122857D01*
X33462023Y-66122857D01*
X33366785Y-66180000D01*
X40842976Y-68740571D02*
X40890595Y-68797714D01*
X41033452Y-68854857D01*
X41128690Y-68854857D01*
X41271547Y-68797714D01*
X41366785Y-68683428D01*
X41414404Y-68569142D01*
X41462023Y-68340571D01*
X41462023Y-68169142D01*
X41414404Y-67940571D01*
X41366785Y-67826285D01*
X41271547Y-67712000D01*
X41128690Y-67654857D01*
X41033452Y-67654857D01*
X40890595Y-67712000D01*
X40842976Y-67769142D01*
X40223928Y-67654857D02*
X40033452Y-67654857D01*
X39938214Y-67712000D01*
X39842976Y-67826285D01*
X39795357Y-68054857D01*
X39795357Y-68454857D01*
X39842976Y-68683428D01*
X39938214Y-68797714D01*
X40033452Y-68854857D01*
X40223928Y-68854857D01*
X40319166Y-68797714D01*
X40414404Y-68683428D01*
X40462023Y-68454857D01*
X40462023Y-68054857D01*
X40414404Y-67826285D01*
X40319166Y-67712000D01*
X40223928Y-67654857D01*
X39366785Y-68854857D02*
X39366785Y-67654857D01*
X39033452Y-68512000D01*
X38700119Y-67654857D01*
X38700119Y-68854857D01*
X38223928Y-68854857D02*
X38223928Y-67654857D01*
X37842976Y-67654857D01*
X37747738Y-67712000D01*
X37700119Y-67769142D01*
X37652500Y-67883428D01*
X37652500Y-68054857D01*
X37700119Y-68169142D01*
X37747738Y-68226285D01*
X37842976Y-68283428D01*
X38223928Y-68283428D01*
X36747738Y-68854857D02*
X37223928Y-68854857D01*
X37223928Y-67654857D01*
X36652500Y-68969142D02*
X35890595Y-68969142D01*
X35652500Y-68397714D02*
X34890595Y-68397714D01*
X53290357Y-54552285D02*
X53623690Y-54552285D01*
X53623690Y-55180857D02*
X53623690Y-53980857D01*
X53147500Y-53980857D01*
X52814166Y-54838000D02*
X52337976Y-54838000D01*
X52909404Y-55180857D02*
X52576071Y-53980857D01*
X52242738Y-55180857D01*
X51909404Y-55180857D02*
X51909404Y-53980857D01*
X51337976Y-55180857D01*
X51337976Y-53980857D01*
X51099880Y-55295142D02*
X50337976Y-55295142D01*
X50147500Y-54095142D02*
X50099880Y-54038000D01*
X50004642Y-53980857D01*
X49766547Y-53980857D01*
X49671309Y-54038000D01*
X49623690Y-54095142D01*
X49576071Y-54209428D01*
X49576071Y-54323714D01*
X49623690Y-54495142D01*
X50195119Y-55180857D01*
X49576071Y-55180857D01*
X49147500Y-54723714D02*
X48385595Y-54723714D01*
X54242738Y-55912857D02*
X53671309Y-55912857D01*
X53957023Y-57112857D02*
X53957023Y-55912857D01*
X53337976Y-57112857D02*
X53337976Y-55912857D01*
X52909404Y-57112857D02*
X52909404Y-56484285D01*
X52957023Y-56370000D01*
X53052261Y-56312857D01*
X53195119Y-56312857D01*
X53290357Y-56370000D01*
X53337976Y-56427142D01*
X52052261Y-57055714D02*
X52147500Y-57112857D01*
X52337976Y-57112857D01*
X52433214Y-57055714D01*
X52480833Y-56941428D01*
X52480833Y-56484285D01*
X52433214Y-56370000D01*
X52337976Y-56312857D01*
X52147500Y-56312857D01*
X52052261Y-56370000D01*
X52004642Y-56484285D01*
X52004642Y-56598571D01*
X52480833Y-56712857D01*
X51576071Y-57112857D02*
X51576071Y-56312857D01*
X51576071Y-56541428D02*
X51528452Y-56427142D01*
X51480833Y-56370000D01*
X51385595Y-56312857D01*
X51290357Y-56312857D01*
X50957023Y-57112857D02*
X50957023Y-56312857D01*
X50957023Y-56427142D02*
X50909404Y-56370000D01*
X50814166Y-56312857D01*
X50671309Y-56312857D01*
X50576071Y-56370000D01*
X50528452Y-56484285D01*
X50528452Y-57112857D01*
X50528452Y-56484285D02*
X50480833Y-56370000D01*
X50385595Y-56312857D01*
X50242738Y-56312857D01*
X50147500Y-56370000D01*
X50099880Y-56484285D01*
X50099880Y-57112857D01*
X49861785Y-57227142D02*
X49099880Y-57227142D01*
X48909404Y-56027142D02*
X48861785Y-55970000D01*
X48766547Y-55912857D01*
X48528452Y-55912857D01*
X48433214Y-55970000D01*
X48385595Y-56027142D01*
X48337976Y-56141428D01*
X48337976Y-56255714D01*
X48385595Y-56427142D01*
X48957023Y-57112857D01*
X48337976Y-57112857D01*
X54242738Y-57844857D02*
X53671309Y-57844857D01*
X53957023Y-59044857D02*
X53957023Y-57844857D01*
X53337976Y-59044857D02*
X53337976Y-57844857D01*
X52909404Y-59044857D02*
X52909404Y-58416285D01*
X52957023Y-58302000D01*
X53052261Y-58244857D01*
X53195119Y-58244857D01*
X53290357Y-58302000D01*
X53337976Y-58359142D01*
X52052261Y-58987714D02*
X52147500Y-59044857D01*
X52337976Y-59044857D01*
X52433214Y-58987714D01*
X52480833Y-58873428D01*
X52480833Y-58416285D01*
X52433214Y-58302000D01*
X52337976Y-58244857D01*
X52147500Y-58244857D01*
X52052261Y-58302000D01*
X52004642Y-58416285D01*
X52004642Y-58530571D01*
X52480833Y-58644857D01*
X51576071Y-59044857D02*
X51576071Y-58244857D01*
X51576071Y-58473428D02*
X51528452Y-58359142D01*
X51480833Y-58302000D01*
X51385595Y-58244857D01*
X51290357Y-58244857D01*
X50957023Y-59044857D02*
X50957023Y-58244857D01*
X50957023Y-58359142D02*
X50909404Y-58302000D01*
X50814166Y-58244857D01*
X50671309Y-58244857D01*
X50576071Y-58302000D01*
X50528452Y-58416285D01*
X50528452Y-59044857D01*
X50528452Y-58416285D02*
X50480833Y-58302000D01*
X50385595Y-58244857D01*
X50242738Y-58244857D01*
X50147500Y-58302000D01*
X50099880Y-58416285D01*
X50099880Y-59044857D01*
X49861785Y-59159142D02*
X49099880Y-59159142D01*
X48337976Y-59044857D02*
X48909404Y-59044857D01*
X48623690Y-59044857D02*
X48623690Y-57844857D01*
X48718928Y-58016285D01*
X48814166Y-58130571D01*
X48909404Y-58187714D01*
X53290357Y-60348285D02*
X53623690Y-60348285D01*
X53623690Y-60976857D02*
X53623690Y-59776857D01*
X53147500Y-59776857D01*
X52814166Y-60634000D02*
X52337976Y-60634000D01*
X52909404Y-60976857D02*
X52576071Y-59776857D01*
X52242738Y-60976857D01*
X51909404Y-60976857D02*
X51909404Y-59776857D01*
X51337976Y-60976857D01*
X51337976Y-59776857D01*
X51099880Y-61091142D02*
X50337976Y-61091142D01*
X49576071Y-60976857D02*
X50147500Y-60976857D01*
X49861785Y-60976857D02*
X49861785Y-59776857D01*
X49957023Y-59948285D01*
X50052261Y-60062571D01*
X50147500Y-60119714D01*
X49147500Y-60519714D02*
X48385595Y-60519714D01*
X55337976Y-62280285D02*
X55004642Y-62280285D01*
X54861785Y-62908857D02*
X55337976Y-62908857D01*
X55337976Y-61708857D01*
X54861785Y-61708857D01*
X54528452Y-62908857D02*
X54004642Y-62108857D01*
X54528452Y-62108857D02*
X54004642Y-62908857D01*
X53766547Y-62108857D02*
X53385595Y-62108857D01*
X53623690Y-61708857D02*
X53623690Y-62737428D01*
X53576071Y-62851714D01*
X53480833Y-62908857D01*
X53385595Y-62908857D01*
X53290357Y-63023142D02*
X52528452Y-63023142D01*
X52290357Y-62908857D02*
X52290357Y-61708857D01*
X51957023Y-62566000D01*
X51623690Y-61708857D01*
X51623690Y-62908857D01*
X51004642Y-62908857D02*
X51099880Y-62851714D01*
X51147500Y-62794571D01*
X51195119Y-62680285D01*
X51195119Y-62337428D01*
X51147500Y-62223142D01*
X51099880Y-62166000D01*
X51004642Y-62108857D01*
X50861785Y-62108857D01*
X50766547Y-62166000D01*
X50718928Y-62223142D01*
X50671309Y-62337428D01*
X50671309Y-62680285D01*
X50718928Y-62794571D01*
X50766547Y-62851714D01*
X50861785Y-62908857D01*
X51004642Y-62908857D01*
X50385595Y-62108857D02*
X50004642Y-62108857D01*
X50242738Y-61708857D02*
X50242738Y-62737428D01*
X50195119Y-62851714D01*
X50099880Y-62908857D01*
X50004642Y-62908857D01*
X49909404Y-63023142D02*
X49147500Y-63023142D01*
X48909404Y-62908857D02*
X48909404Y-61708857D01*
X48671309Y-61708857D01*
X48528452Y-61766000D01*
X48433214Y-61880285D01*
X48385595Y-61994571D01*
X48337976Y-62223142D01*
X48337976Y-62394571D01*
X48385595Y-62623142D01*
X48433214Y-62737428D01*
X48528452Y-62851714D01*
X48671309Y-62908857D01*
X48909404Y-62908857D01*
X55337976Y-64212285D02*
X55004642Y-64212285D01*
X54861785Y-64840857D02*
X55337976Y-64840857D01*
X55337976Y-63640857D01*
X54861785Y-63640857D01*
X54528452Y-64840857D02*
X54004642Y-64040857D01*
X54528452Y-64040857D02*
X54004642Y-64840857D01*
X53766547Y-64040857D02*
X53385595Y-64040857D01*
X53623690Y-63640857D02*
X53623690Y-64669428D01*
X53576071Y-64783714D01*
X53480833Y-64840857D01*
X53385595Y-64840857D01*
X53290357Y-64955142D02*
X52528452Y-64955142D01*
X52290357Y-64840857D02*
X52290357Y-63640857D01*
X51957023Y-64498000D01*
X51623690Y-63640857D01*
X51623690Y-64840857D01*
X51004642Y-64840857D02*
X51099880Y-64783714D01*
X51147500Y-64726571D01*
X51195119Y-64612285D01*
X51195119Y-64269428D01*
X51147500Y-64155142D01*
X51099880Y-64098000D01*
X51004642Y-64040857D01*
X50861785Y-64040857D01*
X50766547Y-64098000D01*
X50718928Y-64155142D01*
X50671309Y-64269428D01*
X50671309Y-64612285D01*
X50718928Y-64726571D01*
X50766547Y-64783714D01*
X50861785Y-64840857D01*
X51004642Y-64840857D01*
X50385595Y-64040857D02*
X50004642Y-64040857D01*
X50242738Y-63640857D02*
X50242738Y-64669428D01*
X50195119Y-64783714D01*
X50099880Y-64840857D01*
X50004642Y-64840857D01*
X49909404Y-64955142D02*
X49147500Y-64955142D01*
X48337976Y-64726571D02*
X48385595Y-64783714D01*
X48528452Y-64840857D01*
X48623690Y-64840857D01*
X48766547Y-64783714D01*
X48861785Y-64669428D01*
X48909404Y-64555142D01*
X48957023Y-64326571D01*
X48957023Y-64155142D01*
X48909404Y-63926571D01*
X48861785Y-63812285D01*
X48766547Y-63698000D01*
X48623690Y-63640857D01*
X48528452Y-63640857D01*
X48385595Y-63698000D01*
X48337976Y-63755142D01*
X55337976Y-66144285D02*
X55004642Y-66144285D01*
X54861785Y-66772857D02*
X55337976Y-66772857D01*
X55337976Y-65572857D01*
X54861785Y-65572857D01*
X54528452Y-66772857D02*
X54004642Y-65972857D01*
X54528452Y-65972857D02*
X54004642Y-66772857D01*
X53766547Y-65972857D02*
X53385595Y-65972857D01*
X53623690Y-65572857D02*
X53623690Y-66601428D01*
X53576071Y-66715714D01*
X53480833Y-66772857D01*
X53385595Y-66772857D01*
X53290357Y-66887142D02*
X52528452Y-66887142D01*
X52290357Y-66772857D02*
X52290357Y-65572857D01*
X51957023Y-66430000D01*
X51623690Y-65572857D01*
X51623690Y-66772857D01*
X51004642Y-66772857D02*
X51099880Y-66715714D01*
X51147500Y-66658571D01*
X51195119Y-66544285D01*
X51195119Y-66201428D01*
X51147500Y-66087142D01*
X51099880Y-66030000D01*
X51004642Y-65972857D01*
X50861785Y-65972857D01*
X50766547Y-66030000D01*
X50718928Y-66087142D01*
X50671309Y-66201428D01*
X50671309Y-66544285D01*
X50718928Y-66658571D01*
X50766547Y-66715714D01*
X50861785Y-66772857D01*
X51004642Y-66772857D01*
X50385595Y-65972857D02*
X50004642Y-65972857D01*
X50242738Y-65572857D02*
X50242738Y-66601428D01*
X50195119Y-66715714D01*
X50099880Y-66772857D01*
X50004642Y-66772857D01*
X49909404Y-66887142D02*
X49147500Y-66887142D01*
X48576071Y-66144285D02*
X48433214Y-66201428D01*
X48385595Y-66258571D01*
X48337976Y-66372857D01*
X48337976Y-66544285D01*
X48385595Y-66658571D01*
X48433214Y-66715714D01*
X48528452Y-66772857D01*
X48909404Y-66772857D01*
X48909404Y-65572857D01*
X48576071Y-65572857D01*
X48480833Y-65630000D01*
X48433214Y-65687142D01*
X48385595Y-65801428D01*
X48385595Y-65915714D01*
X48433214Y-66030000D01*
X48480833Y-66087142D01*
X48576071Y-66144285D01*
X48909404Y-66144285D01*
X55195119Y-68076285D02*
X54861785Y-68076285D01*
X54718928Y-68704857D02*
X55195119Y-68704857D01*
X55195119Y-67504857D01*
X54718928Y-67504857D01*
X54385595Y-68704857D02*
X53861785Y-67904857D01*
X54385595Y-67904857D02*
X53861785Y-68704857D01*
X53623690Y-67904857D02*
X53242738Y-67904857D01*
X53480833Y-67504857D02*
X53480833Y-68533428D01*
X53433214Y-68647714D01*
X53337976Y-68704857D01*
X53242738Y-68704857D01*
X53147500Y-68819142D02*
X52385595Y-68819142D01*
X52147500Y-68704857D02*
X52147500Y-67504857D01*
X51814166Y-68362000D01*
X51480833Y-67504857D01*
X51480833Y-68704857D01*
X50861785Y-68704857D02*
X50957023Y-68647714D01*
X51004642Y-68590571D01*
X51052261Y-68476285D01*
X51052261Y-68133428D01*
X51004642Y-68019142D01*
X50957023Y-67962000D01*
X50861785Y-67904857D01*
X50718928Y-67904857D01*
X50623690Y-67962000D01*
X50576071Y-68019142D01*
X50528452Y-68133428D01*
X50528452Y-68476285D01*
X50576071Y-68590571D01*
X50623690Y-68647714D01*
X50718928Y-68704857D01*
X50861785Y-68704857D01*
X50242738Y-67904857D02*
X49861785Y-67904857D01*
X50099880Y-67504857D02*
X50099880Y-68533428D01*
X50052261Y-68647714D01*
X49957023Y-68704857D01*
X49861785Y-68704857D01*
X49766547Y-68819142D02*
X49004642Y-68819142D01*
X48814166Y-68362000D02*
X48337976Y-68362000D01*
X48909404Y-68704857D02*
X48576071Y-67504857D01*
X48242738Y-68704857D01*
D12*
X55535714Y-52985714D02*
X55607142Y-53057142D01*
X55821428Y-53128571D01*
X55964285Y-53128571D01*
X56178571Y-53057142D01*
X56321428Y-52914285D01*
X56392857Y-52771428D01*
X56464285Y-52485714D01*
X56464285Y-52271428D01*
X56392857Y-51985714D01*
X56321428Y-51842857D01*
X56178571Y-51700000D01*
X55964285Y-51628571D01*
X55821428Y-51628571D01*
X55607142Y-51700000D01*
X55535714Y-51771428D01*
X54607142Y-51628571D02*
X54321428Y-51628571D01*
X54178571Y-51700000D01*
X54035714Y-51842857D01*
X53964285Y-52128571D01*
X53964285Y-52628571D01*
X54035714Y-52914285D01*
X54178571Y-53057142D01*
X54321428Y-53128571D01*
X54607142Y-53128571D01*
X54750000Y-53057142D01*
X54892857Y-52914285D01*
X54964285Y-52628571D01*
X54964285Y-52128571D01*
X54892857Y-51842857D01*
X54750000Y-51700000D01*
X54607142Y-51628571D01*
X53321428Y-53128571D02*
X53321428Y-51628571D01*
X52464285Y-53128571D01*
X52464285Y-51628571D01*
X51750000Y-53128571D02*
X51750000Y-51628571D01*
X50892857Y-53128571D01*
X50892857Y-51628571D01*
X50178571Y-52342857D02*
X49678571Y-52342857D01*
X49464285Y-53128571D02*
X50178571Y-53128571D01*
X50178571Y-51628571D01*
X49464285Y-51628571D01*
X47964285Y-52985714D02*
X48035714Y-53057142D01*
X48250000Y-53128571D01*
X48392857Y-53128571D01*
X48607142Y-53057142D01*
X48750000Y-52914285D01*
X48821428Y-52771428D01*
X48892857Y-52485714D01*
X48892857Y-52271428D01*
X48821428Y-51985714D01*
X48750000Y-51842857D01*
X48607142Y-51700000D01*
X48392857Y-51628571D01*
X48250000Y-51628571D01*
X48035714Y-51700000D01*
X47964285Y-51771428D01*
X47535714Y-51628571D02*
X46678571Y-51628571D01*
X47107142Y-53128571D02*
X47107142Y-51628571D01*
X45892857Y-51628571D02*
X45607142Y-51628571D01*
X45464285Y-51700000D01*
X45321428Y-51842857D01*
X45250000Y-52128571D01*
X45250000Y-52628571D01*
X45321428Y-52914285D01*
X45464285Y-53057142D01*
X45607142Y-53128571D01*
X45892857Y-53128571D01*
X46035714Y-53057142D01*
X46178571Y-52914285D01*
X46250000Y-52628571D01*
X46250000Y-52128571D01*
X46178571Y-51842857D01*
X46035714Y-51700000D01*
X45892857Y-51628571D01*
X43750000Y-53128571D02*
X44250000Y-52414285D01*
X44607142Y-53128571D02*
X44607142Y-51628571D01*
X44035714Y-51628571D01*
X43892857Y-51700000D01*
X43821428Y-51771428D01*
X43750000Y-51914285D01*
X43750000Y-52128571D01*
X43821428Y-52271428D01*
X43892857Y-52342857D01*
X44035714Y-52414285D01*
X44607142Y-52414285D01*
X41250000Y-53128571D02*
X41964285Y-53128571D01*
X41964285Y-51628571D01*
X40821428Y-52700000D02*
X40107142Y-52700000D01*
X40964285Y-53128571D02*
X40464285Y-51628571D01*
X39964285Y-53128571D01*
X39178571Y-52414285D02*
X39178571Y-53128571D01*
X39678571Y-51628571D02*
X39178571Y-52414285D01*
X38678571Y-51628571D01*
X37892857Y-51628571D02*
X37607142Y-51628571D01*
X37464285Y-51700000D01*
X37321428Y-51842857D01*
X37250000Y-52128571D01*
X37250000Y-52628571D01*
X37321428Y-52914285D01*
X37464285Y-53057142D01*
X37607142Y-53128571D01*
X37892857Y-53128571D01*
X38035714Y-53057142D01*
X38178571Y-52914285D01*
X38250000Y-52628571D01*
X38250000Y-52128571D01*
X38178571Y-51842857D01*
X38035714Y-51700000D01*
X37892857Y-51628571D01*
X36607142Y-51628571D02*
X36607142Y-52842857D01*
X36535714Y-52985714D01*
X36464285Y-53057142D01*
X36321428Y-53128571D01*
X36035714Y-53128571D01*
X35892857Y-53057142D01*
X35821428Y-52985714D01*
X35750000Y-52842857D01*
X35750000Y-51628571D01*
X35250000Y-51628571D02*
X34392857Y-51628571D01*
X34821428Y-53128571D02*
X34821428Y-51628571D01*
M02*
