G04 #@! TF.GenerationSoftware,KiCad,Pcbnew,6.0.1-79c1e3a40b~116~ubuntu20.04.1*
G04 #@! TF.CreationDate,2022-02-10T17:59:38+01:00*
G04 #@! TF.ProjectId,SidewinderX1 X axis ConnectorBoard,53696465-7769-46e6-9465-725831205820,rev?*
G04 #@! TF.SameCoordinates,Original*
G04 #@! TF.FileFunction,Copper,L1,Top*
G04 #@! TF.FilePolarity,Positive*
%FSLAX46Y46*%
G04 Gerber Fmt 4.6, Leading zero omitted, Abs format (unit mm)*
G04 Created by KiCad (PCBNEW 6.0.1-79c1e3a40b~116~ubuntu20.04.1) date 2022-02-10 17:59:38*
%MOMM*%
%LPD*%
G01*
G04 APERTURE LIST*
G04 Aperture macros list*
%AMRoundRect*
0 Rectangle with rounded corners*
0 $1 Rounding radius*
0 $2 $3 $4 $5 $6 $7 $8 $9 X,Y pos of 4 corners*
0 Add a 4 corners polygon primitive as box body*
4,1,4,$2,$3,$4,$5,$6,$7,$8,$9,$2,$3,0*
0 Add four circle primitives for the rounded corners*
1,1,$1+$1,$2,$3*
1,1,$1+$1,$4,$5*
1,1,$1+$1,$6,$7*
1,1,$1+$1,$8,$9*
0 Add four rect primitives between the rounded corners*
20,1,$1+$1,$2,$3,$4,$5,0*
20,1,$1+$1,$4,$5,$6,$7,0*
20,1,$1+$1,$6,$7,$8,$9,0*
20,1,$1+$1,$8,$9,$2,$3,0*%
G04 Aperture macros list end*
G04 #@! TA.AperFunction,SMDPad,CuDef*
%ADD10R,1.650000X3.430000*%
G04 #@! TD*
G04 #@! TA.AperFunction,SMDPad,CuDef*
%ADD11R,2.920000X1.270000*%
G04 #@! TD*
G04 #@! TA.AperFunction,ComponentPad*
%ADD12RoundRect,0.250000X-0.725000X0.600000X-0.725000X-0.600000X0.725000X-0.600000X0.725000X0.600000X0*%
G04 #@! TD*
G04 #@! TA.AperFunction,ComponentPad*
%ADD13O,1.950000X1.700000*%
G04 #@! TD*
G04 #@! TA.AperFunction,ComponentPad*
%ADD14RoundRect,0.250000X0.725000X-0.600000X0.725000X0.600000X-0.725000X0.600000X-0.725000X-0.600000X0*%
G04 #@! TD*
G04 #@! TA.AperFunction,SMDPad,CuDef*
%ADD15R,1.800000X2.600000*%
G04 #@! TD*
G04 #@! TA.AperFunction,SMDPad,CuDef*
%ADD16R,0.600000X2.200000*%
G04 #@! TD*
G04 #@! TA.AperFunction,ComponentPad*
%ADD17O,8.000000X4.000000*%
G04 #@! TD*
G04 #@! TA.AperFunction,ComponentPad*
%ADD18C,4.000000*%
G04 #@! TD*
G04 #@! TA.AperFunction,ViaPad*
%ADD19C,0.800000*%
G04 #@! TD*
G04 #@! TA.AperFunction,Conductor*
%ADD20C,0.800000*%
G04 #@! TD*
G04 #@! TA.AperFunction,Conductor*
%ADD21C,2.000000*%
G04 #@! TD*
G04 APERTURE END LIST*
D10*
X37780000Y-68840000D03*
X37780000Y-40040000D03*
D11*
X32300000Y-64940000D03*
X32280000Y-61940000D03*
X32280000Y-58940000D03*
X32280000Y-55940000D03*
X32280000Y-52940000D03*
X32280000Y-49940000D03*
X32280000Y-46940000D03*
X32280000Y-43940000D03*
X27680000Y-43940000D03*
X27780000Y-46940000D03*
X27780000Y-49940000D03*
X27780000Y-52940000D03*
X27780000Y-55940000D03*
X27780000Y-58940000D03*
X27780000Y-61940000D03*
X27780000Y-64940000D03*
D12*
X23050000Y-60400000D03*
D13*
X23050000Y-62900000D03*
X23050000Y-65400000D03*
X23050000Y-67900000D03*
D14*
X24250000Y-38350000D03*
D13*
X24250000Y-35850000D03*
X24250000Y-33350000D03*
D15*
X74450000Y-23737500D03*
X40250000Y-23737500D03*
D16*
X71850000Y-26137500D03*
X70850000Y-26137500D03*
X69850000Y-26137500D03*
X68850000Y-26137500D03*
X67850000Y-26137500D03*
X66850000Y-26137500D03*
X65850000Y-26137500D03*
X64850000Y-26137500D03*
X63850000Y-26137500D03*
X62850000Y-26137500D03*
X61850000Y-26137500D03*
X60850000Y-26137500D03*
X59850000Y-26137500D03*
X58850000Y-26137500D03*
X57850000Y-26137500D03*
X56850000Y-26137500D03*
X55850000Y-26137500D03*
X54850000Y-26137500D03*
X53850000Y-26137500D03*
X52850000Y-26137500D03*
X51850000Y-26137500D03*
X50850000Y-26137500D03*
X49850000Y-26137500D03*
X48850000Y-26137500D03*
X47850000Y-26137500D03*
X46850000Y-26137500D03*
X45850000Y-26137500D03*
X44850000Y-26137500D03*
X43850000Y-26137500D03*
X42850000Y-26137500D03*
D17*
X59280000Y-35940000D03*
D18*
X59280000Y-55940000D03*
X19280000Y-35940000D03*
X19280000Y-55940000D03*
D19*
X70850000Y-24100000D03*
X68850000Y-27800000D03*
X64850000Y-27800000D03*
X34750000Y-64900000D03*
X67850000Y-24000000D03*
X66610035Y-24173543D03*
X65436492Y-24413508D03*
X25700000Y-61950000D03*
X58850000Y-27700000D03*
X60850000Y-27700000D03*
X25700000Y-64950000D03*
X62850000Y-27650000D03*
X34950000Y-58950000D03*
X56850000Y-27700000D03*
X25700000Y-58900000D03*
X25700000Y-55950000D03*
X54850000Y-27700000D03*
D20*
X69764011Y-21600489D02*
X33824581Y-21600489D01*
X33824581Y-21600489D02*
X21950000Y-33475070D01*
X21950000Y-33475070D02*
X21950000Y-59300000D01*
X71850000Y-23686478D02*
X69764011Y-21600489D01*
X21950000Y-59300000D02*
X23050000Y-60400000D01*
X71850000Y-26137500D02*
X71850000Y-23686478D01*
X70850000Y-26137500D02*
X70850000Y-24100000D01*
X23420978Y-41966972D02*
X23420978Y-46437050D01*
X41850489Y-24537989D02*
X41850489Y-25536033D01*
X69850000Y-24237500D02*
X68212500Y-22600000D01*
X41749511Y-25637011D02*
X39750939Y-25637011D01*
X68212500Y-22600000D02*
X43788478Y-22600000D01*
X24624520Y-47640592D02*
X24624520Y-63825480D01*
X24624520Y-63825480D02*
X23050000Y-65400000D01*
X41850489Y-25536033D02*
X41749511Y-25637011D01*
X43788478Y-22600000D02*
X41850489Y-24537989D01*
X23420978Y-46437050D02*
X24624520Y-47640592D01*
X39750939Y-25637011D02*
X23420978Y-41966972D01*
X69850000Y-26137500D02*
X69850000Y-24237500D01*
X68850000Y-26137500D02*
X68850000Y-27800000D01*
X64850000Y-26137500D02*
X64850000Y-27800000D01*
X32340000Y-64900000D02*
X32300000Y-64940000D01*
X34750000Y-64900000D02*
X32340000Y-64900000D01*
X67850000Y-26137500D02*
X67850000Y-24000000D01*
X66850000Y-24413508D02*
X66610035Y-24173543D01*
X66850000Y-26137500D02*
X66850000Y-24413508D01*
X65850000Y-26137500D02*
X65850000Y-24827016D01*
X65850000Y-24827016D02*
X65436492Y-24413508D01*
X54813522Y-29750000D02*
X34623522Y-49940000D01*
X57150000Y-29750000D02*
X54813522Y-29750000D01*
X34623522Y-49940000D02*
X32280000Y-49940000D01*
X57850000Y-26137500D02*
X57850000Y-29050000D01*
X57850000Y-29050000D02*
X57150000Y-29750000D01*
X25710000Y-61940000D02*
X25700000Y-61950000D01*
X58850000Y-26137500D02*
X58850000Y-27700000D01*
X27780000Y-61940000D02*
X25710000Y-61940000D01*
X60850000Y-26137500D02*
X60850000Y-27700000D01*
X25710000Y-64940000D02*
X25700000Y-64950000D01*
X27780000Y-64940000D02*
X25710000Y-64940000D01*
X27770000Y-64950000D02*
X27780000Y-64940000D01*
X46950000Y-49530000D02*
X34540000Y-61940000D01*
X63850000Y-28400000D02*
X59350000Y-32900000D01*
X46950000Y-42150000D02*
X46950000Y-49530000D01*
X34540000Y-61940000D02*
X32280000Y-61940000D01*
X59350000Y-32900000D02*
X56200000Y-32900000D01*
X63850000Y-26137500D02*
X63850000Y-28400000D01*
X56200000Y-32900000D02*
X46950000Y-42150000D01*
X32290000Y-58950000D02*
X32280000Y-58940000D01*
X62850000Y-26137500D02*
X62850000Y-27650000D01*
X34950000Y-58950000D02*
X32290000Y-58950000D01*
X59850000Y-29450000D02*
X58450000Y-30850000D01*
X59850000Y-26137500D02*
X59850000Y-29450000D01*
X33105000Y-52940000D02*
X32280000Y-52940000D01*
X55195000Y-30850000D02*
X33105000Y-52940000D01*
X58450000Y-30850000D02*
X55195000Y-30850000D01*
X45949511Y-41600489D02*
X45949511Y-43095489D01*
X58936466Y-31900000D02*
X55650000Y-31900000D01*
X61850000Y-28986466D02*
X58936466Y-31900000D01*
X45949511Y-43095489D02*
X33105000Y-55940000D01*
X33105000Y-55940000D02*
X32280000Y-55940000D01*
X61850000Y-26137500D02*
X61850000Y-28986466D01*
X55650000Y-31900000D02*
X45949511Y-41600489D01*
D21*
X49850000Y-26137500D02*
X51850000Y-26137500D01*
D20*
X48850000Y-26137500D02*
X52850000Y-26137500D01*
D21*
X41370000Y-30250000D02*
X48350000Y-30250000D01*
X49850000Y-28750000D02*
X49850000Y-26137500D01*
X48350000Y-30250000D02*
X49850000Y-28750000D01*
X27680000Y-43940000D02*
X41370000Y-30250000D01*
X27780000Y-52940000D02*
X27780000Y-46940000D01*
X27780000Y-48120000D02*
X27780000Y-49940000D01*
X25020489Y-45360489D02*
X27780000Y-48120000D01*
D20*
X42850000Y-26137500D02*
X47850000Y-26137500D01*
D21*
X42750978Y-27236522D02*
X40413478Y-27236522D01*
X25020489Y-42629511D02*
X25020489Y-45360489D01*
X43850000Y-26137500D02*
X46850000Y-26137500D01*
X43850000Y-26137500D02*
X42750978Y-27236522D01*
X40413478Y-27236522D02*
X25020489Y-42629511D01*
D20*
X37619022Y-43940000D02*
X32280000Y-43940000D01*
X39204511Y-42354511D02*
X37619022Y-43940000D01*
X39232011Y-42354511D02*
X39204511Y-42354511D01*
X53850000Y-27736522D02*
X39232011Y-42354511D01*
X53850000Y-26137500D02*
X53850000Y-27736522D01*
X56850000Y-26137500D02*
X56850000Y-27700000D01*
X27740000Y-58900000D02*
X25700000Y-58900000D01*
X27740000Y-58900000D02*
X27780000Y-58940000D01*
X36210000Y-46940000D02*
X32280000Y-46940000D01*
X55850000Y-26137500D02*
X55850000Y-28113534D01*
X55264014Y-28699520D02*
X54450480Y-28699520D01*
X54450480Y-28699520D02*
X36210000Y-46940000D01*
X55850000Y-28113534D02*
X55264014Y-28699520D01*
X25700000Y-55950000D02*
X27770000Y-55950000D01*
X27770000Y-55950000D02*
X27780000Y-55940000D01*
X54850000Y-26137500D02*
X54850000Y-27700000D01*
M02*
